# xmcd
#
# Track frame offsets:
#	183
#	23150
#	60113
#	85075
#
# Disc length: 1570 seconds
#
# Revision: 0
# Processed by: cddbd v1.4PL0 Copyright (c) Steve Scherf et al.
# Submitted via: EasyCDDAExtractor 4.6.0.1
#
DISCID=1f062004
DTITLE=Dee Dee Bridgewater and Ray Charles - Till The Next ... Somewhere Plus 3 
DTITLE=Extra Tracks
DYEAR=1900
DGENRE=Soul
TTITLE0=Till The Next ... Somewhere
TTITLE1=Misty
TTITLE2=Dr. Feelgood
TTITLE3=Here's That Rainy Day
EXTD=
EXTT0=
EXTT1=
EXTT2=
EXTT3=
PLAYORDER=
